<svg width="60" height="60" viewBox="0 0 60 60" fill="none" xmlns="http://www.w3.org/2000/svg">
<path d="M54.7513 30.8171C54.7342 30.5947 54.6339 30.387 54.4705 30.2355C54.307 30.084 54.0925 29.9999 53.8698 29.9999H41.1846L40.6078 18.4494C40.5965 18.2226 40.4985 18.0089 40.3341 17.8524C40.1698 17.6959 39.9517 17.6086 39.7248 17.6086H33.5364V13.1831C33.5369 11.9086 33.2318 10.6526 32.6467 9.52071C32.0617 8.38878 31.2138 7.41397 30.1743 6.67821C29.1349 5.94245 27.9342 5.46723 26.6732 5.29249C25.4122 5.11774 24.1278 5.24858 22.9278 5.67401C21.7278 5.24858 20.4433 5.11774 19.1823 5.29249C17.9213 5.46723 16.7207 5.94245 15.6812 6.67821C14.6417 7.41397 13.7939 8.38878 13.2088 9.52071C12.6238 10.6526 12.3186 11.9086 12.3191 13.1831V17.6086H6.13069C5.90387 17.6086 5.68573 17.6959 5.52139 17.8524C5.35705 18.0089 5.25908 18.2226 5.24773 18.4494L3.47962 53.8532C3.47363 53.973 3.49203 54.0927 3.5337 54.2052C3.57536 54.3177 3.63943 54.4205 3.72201 54.5074C3.80459 54.5943 3.90396 54.6635 4.01407 54.7108C4.12419 54.7581 4.24276 54.7825 4.36257 54.7825H55.6379C55.7597 54.7825 55.8802 54.7573 55.9918 54.7085C56.1035 54.6597 56.2038 54.5883 56.2866 54.4988C56.3694 54.4093 56.4328 54.3037 56.4728 54.1885C56.5129 54.0733 56.5287 53.9511 56.5194 53.8295L54.7513 30.8171ZM52.1016 50.1825L53.986 53.0123H50.2177L52.1016 50.1825ZM54.497 50.5884L52.9594 48.2794L51.3104 31.7701H53.0511L54.497 50.5884ZM49.5335 31.7701L51.1911 48.3596L49.2506 51.2731L47.752 31.7701H49.5335ZM39.4143 29.9999H37.7504L37.1263 19.3788H38.8833L39.4143 29.9999ZM35.3551 19.3788L35.9792 29.9999H34.1116L33.5812 19.3788H35.3551ZM25.5799 6.98749C27.2206 6.98936 28.7936 7.64272 29.9537 8.80422C31.1139 9.96572 31.7665 11.5405 31.7683 13.1831V17.6086H28.2321V13.1831C28.2321 11.9964 27.9669 10.8248 27.4558 9.75402C26.9447 8.68328 26.2008 7.74061 25.2786 6.99512C25.3785 6.99036 25.4788 6.98749 25.5799 6.98749ZM22.9278 7.58647C23.9851 8.0896 24.8784 8.88233 25.5043 9.87283C26.1301 10.8633 26.4629 12.0111 26.464 13.1831V17.6086H19.3915V13.1831C19.3927 12.0111 19.7254 10.8633 20.3513 9.87283C20.9771 8.88233 21.8704 8.0896 22.9278 7.58647ZM14.0872 13.1831C14.0891 11.5405 14.7417 9.96572 15.9018 8.80422C17.062 7.64272 18.6349 6.98936 20.2756 6.98749C20.3767 6.98749 20.4771 6.99036 20.577 6.99512C19.6547 7.7406 18.9108 8.68326 18.3997 9.754C17.8886 10.8247 17.6234 11.9964 17.6234 13.1831V17.6086H14.0872V13.1831ZM24.7613 53.0123H5.29194L6.97165 19.3788H12.3191V25.1008L10.0605 26.6082C9.93946 26.6891 9.84018 26.7986 9.77151 26.927C9.70285 27.0555 9.66692 27.1989 9.66691 27.3446V34.4254C9.66691 34.6601 9.76006 34.8852 9.92585 35.0512C10.0916 35.2172 10.3165 35.3105 10.551 35.3105H15.8553C16.0898 35.3105 16.3146 35.2172 16.4804 35.0512C16.6462 34.8852 16.7394 34.6601 16.7394 34.4254V27.3446C16.7394 27.1989 16.7034 27.0555 16.6348 26.927C16.5661 26.7986 16.4668 26.6891 16.3457 26.6082L14.0872 25.1008V19.3788H26.464V22.0341C26.464 22.2688 26.5571 22.4939 26.7229 22.6599C26.8887 22.8259 27.1136 22.9192 27.3481 22.9192C27.5825 22.9192 27.8074 22.8259 27.9732 22.6599C28.139 22.4939 28.2321 22.2688 28.2321 22.0341V19.3788H31.8114L32.3419 29.9999H27.3481C27.1253 29.9999 26.9108 30.084 26.7474 30.2355C26.5839 30.387 26.4836 30.5947 26.4665 30.8171L24.7613 53.0123ZM13.2031 26.6382L14.9713 27.8183V33.5403H11.435V27.8183L13.2031 26.6382ZM28.1667 31.7701H45.9787L47.6107 53.0123H26.5346L28.1667 31.7701Z" fill="#2F3290"/>
<path d="M42.1875 35.625C41.9389 35.625 41.7004 35.7238 41.5246 35.8996C41.3488 36.0754 41.25 36.3139 41.25 36.5625V44.0625C41.2492 44.8082 40.9526 45.523 40.4253 46.0503C39.898 46.5776 39.1832 46.8742 38.4375 46.875H36.5625C35.8168 46.8742 35.102 46.5776 34.5747 46.0503C34.0474 45.523 33.7508 44.8082 33.75 44.0625V36.5625C33.75 36.3139 33.6512 36.0754 33.4754 35.8996C33.2996 35.7238 33.0611 35.625 32.8125 35.625C32.5639 35.625 32.3254 35.7238 32.1496 35.8996C31.9738 36.0754 31.875 36.3139 31.875 36.5625V44.0625C31.8764 45.3053 32.3707 46.4967 33.2495 47.3755C34.1283 48.2543 35.3197 48.7486 36.5625 48.75H38.4375C39.6803 48.7486 40.8717 48.2543 41.7505 47.3755C42.6293 46.4967 43.1236 45.3053 43.125 44.0625V36.5625C43.125 36.3139 43.0262 36.0754 42.8504 35.8996C42.6746 35.7238 42.4361 35.625 42.1875 35.625Z" fill="#2F3290"/>
</svg>
