<svg width="60" height="60" viewBox="0 0 60 60" fill="none" xmlns="http://www.w3.org/2000/svg">
<path d="M56.3989 51.9153H54.5735C48.915 51.9153 45.4469 50.7289 45.4469 44.6139C45.4469 35.8263 36.9035 31.3518 31.757 30.0044V23.6227H36.3203C36.8679 23.6227 37.2329 23.2577 37.2329 22.7101C37.2329 20.1547 35.2251 18.1467 32.6696 18.1467H31.757V15.4088H32.6696C33.0346 15.4088 33.3998 15.135 33.491 14.7699C33.6736 14.4049 33.491 14.0398 33.2172 13.766L18.6146 2.81399C18.2496 2.54019 17.8844 2.54019 17.5194 2.81399L2.91671 13.766C2.64291 13.9485 2.55168 14.4048 2.64291 14.7699C2.73414 15.1351 3.09927 15.4088 3.4643 15.4088H4.37693V38.2253C4.37693 38.7729 4.74196 39.1379 5.28956 39.1379H6.20219V56.4786C6.20219 57.0262 6.56722 57.3913 7.11482 57.3913H10.7657C11.3133 57.3913 11.6783 57.0262 11.6783 56.4786V39.1381H12.5909H13.5035V43.7014V49.1774V54.6534V56.4787C13.5035 57.0263 13.8686 57.3914 14.4162 57.3914C14.9638 57.3914 15.3288 57.0263 15.3288 56.4787V55.5661H20.8048V56.4787C20.8048 57.0263 21.1698 57.3914 21.7174 57.3914C22.265 57.3914 22.63 57.0263 22.63 56.4787V54.6534V49.1774V43.7014V39.1381H23.5427H24.4553V56.4786C24.4553 57.0262 24.8203 57.3913 25.3679 57.3913H29.0185C29.5661 57.3913 29.9312 57.0262 29.9312 56.4786V39.1381H30.8438C31.3914 39.1381 31.7564 38.773 31.7564 38.2254V35.7916C34.4008 36.6236 39.9704 39.046 39.9704 44.6141C39.9704 50.4552 42.5258 57.3915 54.573 57.3915H56.3984C56.946 57.3915 57.311 57.0265 57.311 56.4789V52.8282C57.3115 52.2804 56.9465 51.9153 56.3989 51.9153ZM32.6696 19.9721C33.856 19.9721 34.86 20.7023 35.225 21.7975H31.7569V19.9721H32.6696ZM18.067 4.63936L29.9316 13.5835H6.2023L18.067 4.63936ZM9.85302 55.566H8.02766V39.1381H9.85302V55.566ZM20.805 48.2647H15.329V44.614H20.805V48.2647ZM15.329 50.09H20.805V53.7406H15.329V50.09ZM20.805 42.7887H15.329V39.1381H20.805V42.7887ZM21.7176 37.3127H14.4163H13.5036V27.2734C13.5036 24.7179 15.5115 22.71 18.067 22.71C20.6224 22.71 22.6304 24.7178 22.6304 27.2734V37.3127H21.7176ZM28.1062 55.566H26.2809V39.1381H28.1062V55.566ZM29.9316 37.3127H29.019H25.3684H24.4557V27.2734C24.4557 23.714 21.6265 20.8847 18.0671 20.8847C14.5077 20.8847 11.6785 23.714 11.6785 27.2734V37.3127H10.7657H7.11503H6.2024V15.4088H29.9316V19.0594V22.71V30.7414V34.5746V37.3127ZM55.4862 55.566H54.5735C45.9945 55.566 41.7962 52.0066 41.7962 44.614C41.7962 37.4953 34.4949 34.7573 31.7569 33.9359V31.928C36.4114 33.2058 43.6215 37.1302 43.6215 44.614C43.6215 52.6454 49.1887 53.7406 54.5734 53.7406H55.4861V55.566H55.4862Z" fill="#2F3290"/>
</svg>
