<svg width="60" height="60" viewBox="0 0 60 60" fill="none" xmlns="http://www.w3.org/2000/svg">
<path d="M58.1719 52.1848H54.5462V31.0975C54.5462 30.8433 54.4453 30.5995 54.2655 30.4198C54.0858 30.24 53.8419 30.139 53.5877 30.139H48.7952V21.5124C48.7952 21.3293 48.7427 21.15 48.644 20.9958C48.5453 20.8416 48.4045 20.7188 48.2383 20.6421L36.3345 15.1479V10.0103C36.3345 9.75606 36.2335 9.51226 36.0538 9.3325C35.874 9.15274 35.6302 9.05176 35.376 9.05176H16.2058C15.9515 9.05176 15.7077 9.15274 15.528 9.3325C15.3482 9.51226 15.2472 9.75606 15.2472 10.0103V52.1848H9.49617V51.14C10.4691 50.9793 11.384 50.5702 12.1524 49.9522C12.9208 49.3342 13.5167 48.5283 13.8823 47.6125C14.2479 46.6967 14.371 45.7021 14.2395 44.7248C14.108 43.7475 13.7265 42.8208 13.1318 42.0342C13.3695 41.2379 13.3941 40.3932 13.203 39.5844C13.0119 38.7757 12.6119 38.0313 12.0429 37.4256C12.2598 36.9428 12.3718 36.4194 12.3717 35.8901C12.3717 34.8732 11.9678 33.898 11.2487 33.179C10.5297 32.46 9.55452 32.0561 8.53766 32.0561C7.52081 32.0561 6.5456 32.46 5.82658 33.179C5.10756 33.898 4.70361 34.8732 4.70361 35.8901C4.7032 36.4207 4.81525 36.9453 5.03238 37.4295C4.46343 38.0349 4.0634 38.7792 3.87232 39.5878C3.68123 40.3963 3.70578 41.2409 3.94351 42.037C3.34955 42.8236 2.9686 43.7501 2.83751 44.727C2.70641 45.7039 2.82961 46.6981 3.19519 47.6134C3.56076 48.5288 4.15635 49.3343 4.92434 49.9521C5.69233 50.5699 6.60674 50.9791 7.57915 51.14V52.1848H1.82808C1.57386 52.1848 1.33006 52.2858 1.15031 52.4655C0.970551 52.6453 0.869565 52.8891 0.869565 53.1433C0.869565 53.3975 0.970551 53.6413 1.15031 53.8211C1.33006 54.0008 1.57386 54.1018 1.82808 54.1018H58.1719C58.4261 54.1018 58.6699 54.0008 58.8497 53.8211C59.0295 53.6413 59.1304 53.3975 59.1304 53.1433C59.1304 52.8891 59.0295 52.6453 58.8497 52.4655C58.6699 52.2858 58.4261 52.1848 58.1719 52.1848ZM4.70361 45.4752C4.70713 44.5103 5.07598 43.5825 5.73593 42.8786C5.86331 42.7414 5.94771 42.5699 5.97871 42.3852C6.00972 42.2006 5.98596 42.0109 5.91038 41.8396C5.64476 41.2464 5.59093 40.5799 5.75791 39.9518C5.92489 39.3237 6.30255 38.7719 6.82768 38.3889C7.03105 38.2364 7.1655 38.0093 7.20145 37.7577C7.2374 37.506 7.17191 37.2504 7.01938 37.047C6.76244 36.716 6.62224 36.3092 6.62064 35.8901C6.62064 35.3817 6.82261 34.8941 7.18212 34.5346C7.54163 34.175 8.02924 33.9731 8.53766 33.9731C9.04609 33.9731 9.53369 34.175 9.8932 34.5346C10.2527 34.8941 10.4547 35.3817 10.4547 35.8901C10.4522 36.3067 10.3127 36.7108 10.0579 37.0403C9.90534 37.2437 9.83984 37.4993 9.87579 37.751C9.91174 38.0026 10.0462 38.2297 10.2496 38.3822C10.7747 38.7652 11.1524 39.317 11.3193 39.9451C11.4863 40.5732 11.4325 41.2397 11.1669 41.8329C11.0913 42.0042 11.0675 42.1939 11.0985 42.3785C11.1295 42.5632 11.2139 42.7347 11.3413 42.8719C11.7968 43.3548 12.118 43.9485 12.273 44.594C12.4281 45.2395 12.4115 45.9143 12.2249 46.5514C12.0383 47.1885 11.6883 47.7657 11.2096 48.2256C10.7309 48.6856 10.1402 49.0122 9.49617 49.1732V46.4337C9.49617 46.1795 9.39519 45.9357 9.21543 45.756C9.03568 45.5762 8.79188 45.4752 8.53766 45.4752C8.28345 45.4752 8.03965 45.5762 7.85989 45.756C7.68014 45.9357 7.57915 46.1795 7.57915 46.4337V49.1732C6.75853 48.9613 6.03123 48.4835 5.51097 47.8144C4.9907 47.1453 4.70679 46.3228 4.70361 45.4752ZM46.8781 22.1259V30.139H36.3345V17.2595L46.8781 22.1259ZM17.1643 10.9688H34.4175V52.1848H17.1643V10.9688ZM40.1686 52.1848V42.5997H48.7952V52.1848H40.1686ZM50.7122 52.1848V41.6412C50.7122 41.387 50.6112 41.1432 50.4315 40.9634C50.2517 40.7836 50.0079 40.6827 49.7537 40.6827H39.2101C38.9558 40.6827 38.712 40.7836 38.5323 40.9634C38.3525 41.1432 38.2515 41.387 38.2515 41.6412V52.1848H36.3345V32.0561H52.6292V52.1848H50.7122Z" fill="#2F3290"/>
<path d="M30.653 12.8857H21.0679C20.8137 12.8857 20.5699 12.9867 20.3901 13.1665C20.2104 13.3462 20.1094 13.59 20.1094 13.8443V27.2634C20.1094 27.5176 20.2104 27.7614 20.3901 27.9412C20.5699 28.121 20.8137 28.2219 21.0679 28.2219H30.653C30.9073 28.2219 31.1511 28.121 31.3308 27.9412C31.5106 27.7614 31.6116 27.5176 31.6116 27.2634V13.8443C31.6116 13.59 31.5106 13.3462 31.3308 13.1665C31.1511 12.9867 30.9073 12.8857 30.653 12.8857ZM22.0264 26.3049V14.8028H24.902V26.3049H22.0264ZM29.6945 26.3049H26.819V14.8028H29.6945V26.3049Z" fill="#2F3290"/>
<path d="M30.653 30.1392H21.0679C20.8137 30.1392 20.5699 30.2401 20.3901 30.4199C20.2104 30.5997 20.1094 30.8435 20.1094 31.0977V44.5168C20.1094 44.7711 20.2104 45.0149 20.3901 45.1946C20.5699 45.3744 20.8137 45.4754 21.0679 45.4754H30.653C30.9073 45.4754 31.1511 45.3744 31.3308 45.1946C31.5106 45.0149 31.6116 44.7711 31.6116 44.5168V31.0977C31.6116 30.8435 31.5106 30.5997 31.3308 30.4199C31.1511 30.2401 30.9073 30.1392 30.653 30.1392ZM22.0264 43.5583V32.0562H24.902V43.5583H22.0264ZM29.6945 43.5583H26.819V32.0562H29.6945V43.5583Z" fill="#2F3290"/>
<path d="M49.8231 33.9731H39.2795C39.0252 33.9731 38.7814 34.0741 38.6017 34.2539C38.4219 34.4336 38.3209 34.6774 38.3209 34.9317V38.7657C38.3209 39.0199 38.4219 39.2637 38.6017 39.4435C38.7814 39.6232 39.0252 39.7242 39.2795 39.7242H49.8231C50.0773 39.7242 50.3211 39.6232 50.5009 39.4435C50.6806 39.2637 50.7816 39.0199 50.7816 38.7657V34.9317C50.7816 34.6774 50.6806 34.4336 50.5009 34.2539C50.3211 34.0741 50.0773 33.9731 49.8231 33.9731ZM48.8646 37.8072H40.238V35.8902H48.8646V37.8072Z" fill="#2F3290"/>
<path d="M53.5416 8.11339C53.3558 7.37135 52.9518 6.70207 52.3817 6.19198C51.8117 5.68189 51.1018 5.35441 50.3437 5.25183C49.5857 5.14926 48.8143 5.27631 48.1292 5.61657C47.4441 5.95682 46.8767 6.49466 46.5004 7.16063C45.5284 7.27413 44.6367 7.75497 44.0078 8.50465C43.3788 9.25433 43.0604 10.2161 43.1176 11.193C43.1748 12.1699 43.6034 13.0879 44.3155 13.759C45.0277 14.4301 45.9695 14.8036 46.948 14.8028H53.6576C53.8273 14.8031 53.9936 14.7549 54.1369 14.6639C54.8793 14.443 55.5225 13.9719 55.9571 13.3307C56.3918 12.6896 56.5912 11.9177 56.5214 11.1462C56.4516 10.3747 56.117 9.65114 55.5744 9.09832C55.0318 8.5455 54.3145 8.19749 53.5445 8.11339H53.5416ZM53.4659 12.8571C53.4296 12.8647 53.3938 12.8743 53.3585 12.8858H46.948C46.4396 12.8903 45.9502 12.6926 45.5876 12.3362C45.2249 11.9798 45.0187 11.494 45.0142 10.9856C45.0098 10.4771 45.2075 9.98777 45.5638 9.62511C45.9202 9.26246 46.406 9.05622 46.9145 9.05177L47.0554 9.06711C47.2651 9.08318 47.4742 9.02885 47.6495 8.9127C47.8249 8.79655 47.9565 8.62523 48.0235 8.42586C48.1692 8.00083 48.46 7.64076 48.8449 7.40892C49.2298 7.17709 49.684 7.08834 50.1279 7.15827C50.5717 7.2282 50.9767 7.45233 51.2716 7.79127C51.5666 8.13021 51.7326 8.56228 51.7406 9.01151C51.7406 9.04314 51.7358 9.07573 51.7358 9.10065C51.7357 9.2428 51.7673 9.38318 51.8283 9.51162C51.8892 9.64005 51.9779 9.75333 52.088 9.84325C52.1981 9.93316 52.3268 9.99746 52.4648 10.0315C52.6029 10.0655 52.7467 10.0684 52.886 10.04C53.0946 10.0017 53.309 10.009 53.5145 10.0617C53.7199 10.1143 53.9115 10.2108 54.076 10.3447C54.2405 10.4786 54.374 10.6466 54.4672 10.8371C54.5605 11.0276 54.6113 11.236 54.6161 11.4481C54.6162 11.7795 54.5017 12.1008 54.2921 12.3576C54.0825 12.6143 53.7906 12.7908 53.4659 12.8571V12.8571Z" fill="#2F3290"/>
</svg>
