<svg width="60" height="60" viewBox="0 0 60 60" fill="none" xmlns="http://www.w3.org/2000/svg">
<g clip-path="url(#clip0)">
<path d="M48.7499 27.4996C48.0619 27.4996 47.3948 27.5839 46.7407 27.7027L42.7952 14.5516L49.1454 12.4348C49.7996 12.2175 50.1536 11.5095 49.9352 10.8539C49.7167 10.1997 49.0135 9.84683 48.3544 10.0641L40.8544 12.5641C40.2135 12.7777 39.8583 13.4612 40.0523 14.1082L41.8196 19.9994H23.2726L20.7726 14.9993H23.7499C24.4408 14.9993 24.9999 14.4402 24.9999 13.7493C24.9999 13.0584 24.4408 12.4993 23.7499 12.4993H16.2499C15.559 12.4993 14.9999 13.0584 14.9999 13.7493C14.9999 14.4402 15.559 14.9993 16.2499 14.9993H17.9773L21.0639 21.1723L16.2194 28.7078C14.7142 27.9592 13.0421 27.4993 11.25 27.4993C5.04633 27.4993 0 32.5457 0 38.7493C0 44.9528 5.04644 49.9993 11.25 49.9993C17.0256 49.9993 21.7425 45.6088 22.3737 39.9993H26.4803C26.998 41.4511 28.3725 42.4993 30 42.4993C32.0679 42.4993 33.75 40.8171 33.75 38.7493C33.75 38.0003 33.5238 37.3056 33.1442 36.7196L43.0022 23.9405L44.3409 28.4032C40.3235 30.1221 37.4999 34.1106 37.4999 38.7496C37.4999 44.9533 42.5463 49.9996 48.7499 49.9996C54.9534 49.9996 59.9999 44.9532 59.9999 38.7496C59.9999 32.546 54.9535 27.4996 48.7499 27.4996ZM11.2499 47.4996C6.42562 47.4996 2.49984 43.5739 2.49984 38.7496C2.49984 33.9253 6.42562 29.9996 11.2499 29.9996C12.5443 29.9996 13.7637 30.3 14.8701 30.8068L10.1988 38.0733C9.95097 38.4578 9.93398 38.9473 10.1524 39.3489C10.3721 39.7493 10.792 39.9995 11.2499 39.9995H19.8736C19.2605 44.2287 15.646 47.4996 11.2499 47.4996ZM13.54 37.4996L16.9621 32.176C18.5072 33.5205 19.5663 35.3798 19.8736 37.4996H13.54ZM26.4801 37.4996H22.3735C22.0365 34.5027 20.5393 31.8812 18.3169 30.0682L22.3638 23.7728L28.2139 35.4729C27.4115 35.9123 26.791 36.6276 26.4801 37.4996ZM29.9999 39.9996C29.3102 39.9996 28.7498 39.4394 28.7498 38.7496C28.7498 38.06 29.3101 37.4996 29.9999 37.4996C30.6896 37.4996 31.2499 38.0598 31.2499 38.7496C31.2499 39.4394 30.6895 39.9996 29.9999 39.9996ZM31.1583 35.2015C31.0465 35.1648 30.9374 35.1226 30.821 35.0965L24.5225 22.4996H40.9569L31.1583 35.2015ZM48.7499 47.4996C43.9256 47.4996 39.9998 43.5739 39.9998 38.7496C39.9998 35.2435 42.0861 32.2334 45.0712 30.8385L47.5523 39.1084C47.7146 39.6504 48.2115 39.9995 48.7499 39.9995C48.8682 39.9995 48.9892 39.9824 49.1088 39.947C49.7704 39.748 50.1452 39.051 49.9474 38.3907L47.4688 30.1291C47.8904 30.0664 48.3112 29.9996 48.7499 29.9996C53.5741 29.9996 57.4999 33.9253 57.4999 38.7496C57.4999 43.5739 53.5741 47.4996 48.7499 47.4996Z" fill="#2F3290"/>
</g>
<defs>
<clipPath id="clip0">
<rect width="60" height="60" fill="white"/>
</clipPath>
</defs>
</svg>
