<svg width="600" height="600" viewBox="0 0 600 600" fill="none" xmlns="http://www.w3.org/2000/svg">
<g clip-path="url(#clip0)">
<path d="M0 0V600H600V0H0Z" fill="#012169"/>
<path d="M0 0L600 600L0 0ZM600 0L0 600Z" fill="black"/>
<path d="M600 0L0 600M0 0L600 600L0 0Z" stroke="white" stroke-width="120"/>
<path d="M0 0L600 600L0 0ZM600 0L0 600Z" fill="black"/>
<path d="M600 0L0 600M0 0L600 600L0 0Z" stroke="#C8102E" stroke-width="80"/>
<path d="M300 0V600V0ZM0 300H600Z" fill="black"/>
<path d="M0 300H600M300 0V600V0Z" stroke="white" stroke-width="200"/>
<path d="M300 0V600V0ZM0 300H600Z" fill="black"/>
<path d="M0 300H600M300 0V600V0Z" stroke="#C8102E" stroke-width="120"/>
</g>
<defs>
<clipPath id="clip0">
<rect width="600" height="600" rx="300" fill="white"/>
</clipPath>
</defs>
</svg>
