<svg width="60" height="60" viewBox="0 0 60 60" fill="none" xmlns="http://www.w3.org/2000/svg">
<rect width="60" height="60" rx="30" fill="#DFDAD5"/>
<rect x="10" y="10" width="40" height="40" rx="20" fill="#CF955C"/>
<path d="M38.4211 33.1684C37.1873 33.1684 35.979 32.9758 34.8326 32.5969C34.2737 32.4042 33.64 32.5526 33.2716 32.9274L31.0011 34.6421C28.3968 33.2527 26.7295 31.5863 25.3569 28.999L27.0253 26.7821C27.4453 26.3611 27.5958 25.7474 27.4158 25.1716C27.0358 24.02 26.8421 22.8105 26.8421 21.5789C26.8421 20.7084 26.1337 20 25.2632 20H21.5789C20.7084 20 20 20.7084 20 21.5789C20 31.7358 28.2642 40 38.4211 40C39.2916 40 40 39.2916 40 38.4211V34.7474C40 33.8768 39.2916 33.1684 38.4211 33.1684ZM38.9474 38.4211C38.9474 38.7116 38.7105 38.9474 38.4211 38.9474C28.8442 38.9474 21.0526 31.1558 21.0526 21.5789C21.0526 21.2884 21.2895 21.0526 21.5789 21.0526H25.2632C25.5527 21.0526 25.7895 21.2884 25.7895 21.5789C25.7895 22.9232 26.0001 24.2432 26.4127 25.4947C26.4737 25.6916 26.4242 25.8948 26.2316 26.0947L24.3158 28.6316C24.1948 28.7926 24.1758 29.0084 24.2674 29.1874C25.8284 32.2537 27.7243 34.1505 30.8127 35.7326C30.9906 35.8253 31.2085 35.8063 31.3695 35.6842L33.9611 33.72C34.1022 33.5811 34.3095 33.5327 34.4969 33.5947C35.7559 34.0106 37.0759 34.221 38.4211 34.221C38.7106 34.221 38.9475 34.4569 38.9475 34.7474V38.4211H38.9474Z" fill="white"/>
</svg>
