<svg width="600" height="600" viewBox="0 0 600 600" fill="none" xmlns="http://www.w3.org/2000/svg">
<g clip-path="url(#clip0)">
<g filter="url(#filter0_d)">
<mask id="mask0" mask-type="alpha" maskUnits="userSpaceOnUse" x="1" y="1" width="598" height="598">
<path d="M548.346 1.98682H51.6572C24.2258 1.98682 1.98828 24.2243 1.98828 51.6557V548.344C1.98828 575.776 24.2258 598.013 51.6572 598.013H548.346C575.777 598.013 598.015 575.776 598.015 548.344V51.6557C598.015 24.2243 575.777 1.98682 548.346 1.98682Z" fill="#C4C4C4"/>
</mask>
<g mask="url(#mask0)">
<path d="M697.354 399.338H-97.3477V598.013H697.354V399.338Z" fill="#1EB53A"/>
<path d="M-97.3477 200.662H697.354V399.338H-97.3477V200.662Z" fill="#CE1126"/>
<path d="M-97.3477 209.938H697.354V390.027H-97.3477V209.938Z" fill="white"/>
<path d="M697.354 1.98682H-97.3477V200.662H697.354V1.98682Z" fill="#0099B5"/>
<path d="M195.555 178.713C233.879 178.713 264.947 147.645 264.947 109.321C264.947 70.9973 233.879 39.9297 195.555 39.9297C157.232 39.9297 126.164 70.9973 126.164 109.321C126.164 147.645 157.232 178.713 195.555 178.713Z" fill="white"/>
<path d="M218.739 178.748C257.063 178.748 288.13 147.681 288.13 109.357C288.13 71.0334 257.063 39.9658 218.739 39.9658C180.416 39.9658 149.348 71.0334 149.348 109.357C149.348 147.681 180.416 178.748 218.739 178.748Z" fill="#0099B5"/>
<path d="M237.433 150.557L240.678 160.546H251.182L242.685 166.719L245.93 176.709L237.433 170.535L228.936 176.709L232.181 166.719L223.684 160.546H234.188L237.433 150.557Z" fill="white"/>
<path d="M292.342 150.557L295.588 160.546H306.091L297.594 166.719L300.839 176.709L292.342 170.535L283.845 176.709L287.091 166.719L278.594 160.546H289.097L292.342 150.557Z" fill="white"/>
<path d="M347.346 150.557L350.592 160.546H361.095L352.598 166.719L355.843 176.709L347.346 170.535L338.849 176.709L342.095 166.719L333.598 160.546H344.101L347.346 150.557Z" fill="white"/>
<path d="M402.253 150.557L405.499 160.546H416.002L407.505 166.719L410.751 176.709L402.253 170.535L393.756 176.709L397.001 166.719L388.504 160.546H399.008L402.253 150.557Z" fill="white"/>
<path d="M457.162 150.557L460.409 160.546H470.912L462.414 166.719L465.66 176.709L457.162 170.535L448.665 176.709L451.911 166.719L443.414 160.546H453.917L457.162 150.557Z" fill="white"/>
<path d="M459.393 94.8975L462.639 104.887H473.142L464.645 111.06L467.89 121.05L459.393 114.876L450.896 121.05L454.142 111.06L445.645 104.887H456.148L459.393 94.8975Z" fill="white"/>
<path d="M402.253 94.8975L405.499 104.887H416.002L407.505 111.06L410.751 121.05L402.253 114.876L393.756 121.05L397.001 111.06L388.504 104.887H399.008L402.253 94.8975Z" fill="white"/>
<path d="M402.253 39.2383L405.499 49.2275H416.002L407.505 55.4012L410.751 65.3904L402.253 59.2167L393.756 65.3904L397.001 55.4012L388.504 49.2275H399.008L402.253 39.2383Z" fill="white"/>
<path d="M347.346 94.8975L350.592 104.887H361.095L352.598 111.06L355.843 121.05L347.346 114.876L338.849 121.05L342.095 111.06L333.598 104.887H344.101L347.346 94.8975Z" fill="white"/>
<path d="M347.346 39.2383L350.592 49.2275H361.095L352.598 55.4012L355.843 65.3904L347.346 59.2167L338.849 65.3904L342.095 55.4012L333.598 49.2275H344.101L347.346 39.2383Z" fill="white"/>
<path d="M292.342 94.8975L295.588 104.887H306.091L297.594 111.06L300.839 121.05L292.342 114.876L283.845 121.05L287.091 111.06L278.594 104.887H289.097L292.342 94.8975Z" fill="white"/>
<path d="M459.393 39.2383L462.639 49.2275H473.142L464.645 55.4012L467.89 65.3904L459.393 59.2167L450.896 65.3904L454.142 55.4012L445.645 49.2275H456.148L459.393 39.2383Z" fill="white"/>
</g>
</g>
</g>
<defs>
<filter id="filter0_d" x="-0.0117188" y="-0.0131836" width="600.026" height="600.026" filterUnits="userSpaceOnUse" color-interpolation-filters="sRGB">
<feFlood flood-opacity="0" result="BackgroundImageFix"/>
<feColorMatrix in="SourceAlpha" type="matrix" values="0 0 0 0 0 0 0 0 0 0 0 0 0 0 0 0 0 0 127 0"/>
<feOffset/>
<feGaussianBlur stdDeviation="1"/>
<feColorMatrix type="matrix" values="0 0 0 0 0.6 0 0 0 0 0.6 0 0 0 0 0.6 0 0 0 0.5 0"/>
<feBlend mode="normal" in2="BackgroundImageFix" result="effect1_dropShadow"/>
<feBlend mode="normal" in="SourceGraphic" in2="effect1_dropShadow" result="shape"/>
</filter>
<clipPath id="clip0">
<rect width="600" height="600" rx="300" fill="white"/>
</clipPath>
</defs>
</svg>
